<?xml version="1.0" standalone="no"?><!DOCTYPE svg PUBLIC "-//W3C//DTD SVG 1.1//EN" "http://www.w3.org/Graphics/SVG/1.1/DTD/svg11.dtd"><svg t="1490875006379" class="icon" style="" viewBox="0 0 1211 1024" version="1.1" xmlns="http://www.w3.org/2000/svg" p-id="2306" xmlns:xlink="http://www.w3.org/1999/xlink" width="236.5234375" height="200"><defs><style type="text/css"></style></defs><path d="M930.909055 325.818176C930.909055 313.212097 926.303029 302.303009 917.090889 293.090913 907.878793 283.878773 896.969662 279.272704 884.363626 279.272704 871.757547 279.272704 860.84846 283.878773 851.636364 293.090913L744.727253 399.272711 744.727253 186.181802C744.727253 173.575767 740.121183 162.666679 730.909087 153.45454 721.696947 144.2424 710.78786 139.636374 698.181824 139.636374 685.575745 139.636374 674.666658 144.2424 665.454518 153.45454 656.242422 162.666679 651.636352 173.575767 651.636352 186.181802L651.636352 399.272711 544.727241 293.090913C535.515145 283.878773 524.606057 279.272704 511.999978 279.272704 499.393943 279.272704 488.484855 283.878773 479.272715 293.090913 470.060576 302.303009 465.454549 313.212097 465.454549 325.818176 465.454549 338.424255 470.060576 349.333342 479.272715 358.545439L665.454518 544.727241C674.666658 553.939381 685.575745 558.545451 698.181824 558.545451 710.78786 558.545451 721.696947 553.939381 730.909087 544.727241L917.090889 358.545439C926.303029 349.333342 930.909055 338.424255 930.909055 325.818176ZM465.454549 930.909055C465.454549 956.606031 456.363614 978.545454 438.18183 996.727238 420.000003 1014.909065 398.06058 1024 372.363648 1024 346.666673 1024 324.72725 1014.909065 306.545466 996.727238 288.363639 978.545454 279.272704 956.606031 279.272704 930.909055 279.272704 905.212123 288.363639 883.2727 306.545466 865.090873 324.72725 846.909089 346.666673 837.818154 372.363648 837.818154 398.06058 837.818154 420.000003 846.909089 438.18183 865.090873 456.363614 883.2727 465.454549 905.212123 465.454549 930.909055ZM1117.090901 930.909055C1117.090901 956.606031 1107.999966 978.545454 1089.818182 996.727238 1071.636355 1014.909065 1049.696932 1024 1024 1024 998.303025 1024 976.363602 1014.909065 958.181818 996.727238 939.999991 978.545454 930.909055 956.606031 930.909055 930.909055 930.909055 905.212123 939.999991 883.2727 958.181818 865.090873 976.363602 846.909089 998.303025 837.818154 1024 837.818154 1049.696932 837.818154 1071.636355 846.909089 1089.818182 865.090873 1107.999966 883.2727 1117.090901 905.212123 1117.090901 930.909055ZM1210.181802 139.636374 1210.181802 511.999978C1210.181802 523.636335 1206.303002 533.939401 1198.545445 542.909089 1190.787845 551.878776 1180.848479 557.090911 1168.727261 558.545451L409.454529 647.272734C409.93939 650.666673 411.030316 655.878765 412.727264 662.909096 414.424255 669.939383 415.878794 676.363605 417.090881 682.181806 418.303012 688.000006 418.909077 693.333302 418.909077 698.181824 418.909077 705.939381 413.09092 721.454539 401.45452 744.727253L1070.545429 744.727253C1083.151508 744.727253 1094.060595 749.333323 1103.272692 758.545462 1112.484831 767.757559 1117.090901 778.666646 1117.090901 791.272725 1117.090901 803.878761 1112.484831 814.787848 1103.272692 823.999988 1094.060595 833.212128 1083.151508 837.818154 1070.545429 837.818154L325.818176 837.818154C313.212097 837.818154 302.303009 833.212128 293.090913 823.999988 283.878773 814.787848 279.272704 803.878761 279.272704 791.272725 279.272704 784.484847 281.939373 774.909094 287.272713 762.545424 292.606052 750.181797 299.757587 735.757565 308.727275 719.27273 317.696962 702.78785 322.666645 693.575754 323.636367 691.636354L194.909081 93.090901 46.545472 93.090901C33.939393 93.090901 23.030306 88.484831 13.818166 79.272735 4.60607 70.060595 0 59.151508 0 46.545472 0 33.939393 4.60607 23.030306 13.818166 13.818166 23.030306 4.60607 33.939393 0 46.545472 0L232.727275 0C240.484832 0 247.393915 1.575744 253.454524 4.727274 259.515133 7.878805 264.363611 11.636357 268.000003 16.000018 271.636351 20.363636 274.787882 26.303041 277.454551 33.818189 280.121221 41.333337 281.939373 47.757559 282.909095 53.090899 283.878773 58.424238 285.212108 65.575773 286.9091 74.545461 288.606048 83.515148 289.696974 89.696962 290.181835 93.090901L1163.63633 93.090901C1176.242409 93.090901 1187.151497 97.696971 1196.363593 106.909111 1205.575733 116.121207 1210.181802 127.030295 1210.181802 139.636374ZM1210.181802 139.636374" p-id="2307" fill="#ffffff"></path></svg>