<?xml version="1.0" encoding="UTF-8"?>
<svg width="100" height="100" version="1.1" viewBox="0 0 26.458333 26.458334" xmlns="http://www.w3.org/2000/svg"><g transform="translate(0 -270.54)"><rect x="2.6461" y="273.19" width="21.166" height="21.166" rx=".94197" ry=".94197" fill="#236895" stroke-width=".31733"/><path d="m3.7757 279.57c-0.62588 0-1.1299 0.50397-1.1299 1.1299v12.527c0 0.62588 0.50397 1.1298 1.1299 1.1298h18.907c0.62588 0 1.1299-0.50397 1.1299-1.1298v-12.527c0-0.62589-0.50398-1.1299-1.1299-1.1299h-1.8383v11.131c0 0.62587-0.50336 1.1298-1.1292 1.1298h-12.972c-0.62588 0-1.1292-0.50398-1.1292-1.1298v-11.131z" fill="#2bbbf8" stroke-width=".26523"/><path d="m1.0681 288.25 1.6967-2.2623 7.8375 5.1703c2.9464-9.4119 8.2023-15.671 12.805-19.592l1.9794 2.2623c-5.0244 3.9187-11.924 13.416-12.725 22.057z" fill="#54ff00" stroke="#009800" stroke-width=".56555"/></g></svg>
